<svg width="52" height="52" viewBox="0 0 52 52" fill="none" xmlns="http://www.w3.org/2000/svg">
<path opacity="0.2" d="M51.22 32.2899C47.7474 46.2186 33.6391 54.6946 19.7088 51.2219C5.78498 47.7493 -2.69183 33.6411 0.78161 19.7132C4.25261 5.78287 18.36 -2.69476 32.2863 0.777864C46.2158 4.25049 54.6918 18.3604 51.2192 32.2899H51.22Z" fill="#FF8C00"/>
<path fill-rule="evenodd" clip-rule="evenodd" d="M33.8308 22.9797C34.1813 20.6327 32.3944 19.371 29.951 18.5294L30.7436 15.3501L28.8078 14.8678L28.0361 17.9633C27.5279 17.8365 27.0054 17.7169 26.4862 17.5984L27.2634 14.4825L25.3292 14.0002L24.5361 17.1784C24.115 17.0825 23.7016 16.9877 23.3003 16.8879L23.3025 16.878L20.6337 16.2116L20.1189 18.2786C20.1189 18.2786 21.5547 18.6076 21.5244 18.628C22.3082 18.8237 22.4504 19.3424 22.4261 19.7535L21.5233 23.3754C21.5773 23.3892 21.6473 23.409 21.7245 23.4399L21.5205 23.3892L20.2545 28.4629C20.1586 28.701 19.9155 29.0582 19.3676 28.9226C19.3869 28.9507 17.961 28.5715 17.961 28.5715L17.0002 30.7872L19.5192 31.415C19.8035 31.4863 20.0843 31.5595 20.362 31.632L20.3623 31.6321C20.5422 31.679 20.7208 31.7256 20.8982 31.7711L20.0974 34.9873L22.0304 35.4696L22.8241 32.2881C23.3516 32.4314 23.8642 32.5637 24.3658 32.6883L23.5754 35.8549L25.5106 36.3372L26.3115 33.1276C29.6114 33.7521 32.0934 33.5002 33.1368 30.5161C33.9785 28.1129 33.0955 26.7266 31.3592 25.8221C32.6237 25.5295 33.5761 24.6977 33.8302 22.9797H33.8308ZM29.4083 29.1797C28.8589 31.3854 25.4058 30.4728 23.8272 30.0556C23.6858 30.0182 23.5595 29.9848 23.4516 29.958L24.5143 25.6979C24.6461 25.7308 24.8072 25.7669 24.9897 25.8079L24.9897 25.8079C26.6228 26.1744 29.9696 26.9254 29.4089 29.1797H29.4083ZM25.318 23.8311C26.6352 24.1825 29.5063 24.9485 30.0064 22.9448C30.5178 20.895 27.7259 20.2772 26.3624 19.9754C26.2092 19.9415 26.0739 19.9116 25.9635 19.8841L25 23.7479C25.0912 23.7706 25.1982 23.7992 25.318 23.8311Z" fill="#F7931A"/>
</svg>
