<svg width="52" height="52" viewBox="0 0 52 52" fill="none" xmlns="http://www.w3.org/2000/svg">
<path opacity="0.2" d="M44.8378 43.7171C35.0531 54.1232 18.6854 54.6271 8.27945 44.8425C-2.12663 35.0578 -2.63024 18.69 7.15449 8.28388C16.9391 -2.1221 33.3068 -2.6258 43.7129 7.15892C54.1187 16.9434 54.6224 33.3111 44.8378 43.7171Z" fill="black"/>
<g opacity="0.8">
<path d="M25.9134 13.9996L25.7537 14.5426V30.2982L25.9134 30.4577L33.227 26.1346L25.9134 13.9996Z" fill="white"/>
<path d="M25.9132 13.9995L18.5996 26.1345L25.9132 30.4576V22.8103V13.9995Z" fill="white"/>
<path d="M25.9133 32.8371L25.8232 32.9468V38.5593L25.9133 38.8222L33.2312 28.5162L25.9133 32.8371Z" fill="white"/>
<path d="M25.9132 38.8222V32.837L18.5996 28.5162L25.9132 38.8222Z" fill="white"/>
<path d="M25.9131 30.4575L33.2265 26.1346L25.9131 22.8104V30.4575Z" fill="white"/>
<path d="M18.5996 26.1346L25.9131 30.4577V22.8104L18.5996 26.1346Z" fill="white"/>
</g>
</svg>
