<svg width="141" height="238" viewBox="0 0 141 238" fill="none" xmlns="http://www.w3.org/2000/svg">
<path d="M48.0625 189H21.1562V81.4688H7.75V54.5625H48.0625V189Z" fill="url(#paint0_linear_476_435)"/>
<g filter="url(#filter0_d_476_435)">
<path d="M136 99C129.222 109.167 129.222 95.6111 119.056 105.778C108.889 99 108.889 115.944 98.7222 105.778C101.769 114.924 110.309 121.279 119.394 122.471C118.456 128.534 120.079 135.844 112.278 143.052C105.473 149.345 102.033 144.109 85.1667 132.889C75 126.125 68.2222 119.333 51.2778 122.722C31.3409 126.711 14 143.052 14 149.83C14 156.608 24.1667 197.169 85.1667 197.169C91.9444 197.169 102.935 194.919 112.278 187.108C132.459 170.238 132.211 135.092 127.799 121.173C133.831 117.354 136 107.11 136 99Z" fill="url(#paint1_linear_476_435)"/>
</g>
<path d="M116.392 182.807C116.897 182.248 117.371 181.662 117.846 181.076C124.213 173.108 127.68 162.948 129.215 152.982C122.441 169.916 119.028 186.833 81.7778 186.833C44.5 186.833 30.9444 142.778 14 149.556C14 156.333 24.1667 196.895 85.1667 196.895C91.9444 196.895 102.935 194.645 112.278 186.833C113.742 185.59 115.117 184.245 116.392 182.807Z" fill="url(#paint2_linear_476_435)"/>
<path d="M36.0278 152.944C38.8352 152.944 41.1111 150.669 41.1111 147.861C41.1111 145.054 38.8352 142.778 36.0278 142.778C33.2203 142.778 30.9445 145.054 30.9445 147.861C30.9445 150.669 33.2203 152.944 36.0278 152.944Z" fill="#292F33"/>
<defs>
<filter id="filter0_d_476_435" x="11" y="99" width="130" height="106.169" filterUnits="userSpaceOnUse" color-interpolation-filters="sRGB">
<feFlood flood-opacity="0" result="BackgroundImageFix"/>
<feColorMatrix in="SourceAlpha" type="matrix" values="0 0 0 0 0 0 0 0 0 0 0 0 0 0 0 0 0 0 127 0" result="hardAlpha"/>
<feOffset dx="1" dy="4"/>
<feGaussianBlur stdDeviation="2"/>
<feComposite in2="hardAlpha" operator="out"/>
<feColorMatrix type="matrix" values="0 0 0 0 0 0 0 0 0 0 0 0 0 0 0 0 0 0 0.25 0"/>
<feBlend mode="normal" in2="BackgroundImageFix" result="effect1_dropShadow_476_435"/>
<feBlend mode="normal" in="SourceGraphic" in2="effect1_dropShadow_476_435" result="shape"/>
</filter>
<linearGradient id="paint0_linear_476_435" x1="-33" y1="29.5" x2="159" y2="243.5" gradientUnits="userSpaceOnUse">
<stop stop-color="#00FCCE"/>
<stop offset="1" stop-color="#00C9FF"/>
</linearGradient>
<linearGradient id="paint1_linear_476_435" x1="91" y1="129.5" x2="132" y2="81.5" gradientUnits="userSpaceOnUse">
<stop offset="0.136739" stop-color="#0F79CB"/>
<stop offset="1" stop-color="#00EFDA"/>
</linearGradient>
<linearGradient id="paint2_linear_476_435" x1="31" y1="187.5" x2="177" y2="135" gradientUnits="userSpaceOnUse">
<stop stop-color="#08B0D2"/>
<stop offset="1" stop-color="#08B0D2" stop-opacity="0"/>
</linearGradient>
</defs>
</svg>
