<svg width="176" height="225" viewBox="0 0 176 225" fill="none" xmlns="http://www.w3.org/2000/svg">
<path d="M103.656 148.688C103.656 154.25 102.594 159.469 100.469 164.344C98.3438 169.219 95.4375 173.5 91.75 177.188C88.125 180.812 83.875 183.688 79 185.812C74.125 187.938 68.9062 189 63.3438 189H9.53125V162.094H63.3438C65.2188 162.094 66.9688 161.75 68.5938 161.062C70.2188 160.375 71.625 159.438 72.8125 158.25C74.0625 157 75.0312 155.562 75.7188 153.938C76.4062 152.312 76.75 150.562 76.75 148.688C76.75 146.812 76.4062 145.062 75.7188 143.438C75.0312 141.812 74.0625 140.406 72.8125 139.219C71.625 137.969 70.2188 137 68.5938 136.312C66.9688 135.625 65.2188 135.281 63.3438 135.281H26.6875V108.375H63.3438C65.2188 108.375 66.9688 108.031 68.5938 107.344C70.2188 106.656 71.625 105.719 72.8125 104.531C74.0625 103.281 75.0312 101.844 75.7188 100.219C76.4062 98.5312 76.75 96.75 76.75 94.875C76.75 93 76.4062 91.25 75.7188 89.625C75.0312 88 74.0625 86.5938 72.8125 85.4062C71.625 84.1562 70.2188 83.1875 68.5938 82.5C66.9688 81.8125 65.2188 81.4688 63.3438 81.4688H9.53125V54.5625H63.3438C68.9062 54.5625 74.125 55.625 79 57.75C83.875 59.875 88.125 62.7813 91.75 66.4688C95.4375 70.0938 98.3438 74.3438 100.469 79.2188C102.594 84.0938 103.656 89.3125 103.656 94.875C103.656 99.8125 102.75 104.625 100.938 109.312C99.125 113.938 96.5625 118.094 93.25 121.781C96.5625 125.469 99.125 129.656 100.938 134.344C102.75 138.969 103.656 143.75 103.656 148.688Z" fill="url(#paint0_linear_476_439)"/>
<g filter="url(#filter0_d_476_439)">
<g filter="url(#filter1_d_476_439)">
<path d="M110 92C143.691 92 171 119.313 171 153C171 186.687 143.691 214 110 214C76.3091 214 49 186.688 49 153C49 119.312 76.3091 92 110 92Z" fill="url(#paint1_linear_476_439)"/>
</g>
<path d="M110 103.438C82.6261 103.438 60.4376 125.626 60.4376 153C60.4376 180.373 82.6265 202.562 110 202.562C137.374 202.562 159.562 180.373 159.562 153C159.562 125.626 137.374 103.438 110 103.438ZM110 194.938C86.8389 194.938 68.0625 176.161 68.0625 153C68.0625 129.839 86.8393 111.062 110 111.062C133.161 111.062 151.938 129.839 151.938 153C151.938 176.161 133.165 194.938 110 194.938ZM115.071 149.817C112.791 148.859 104.411 147.537 104.411 143.873C104.411 141.17 107.545 140.388 109.425 140.388C111.137 140.388 113.188 140.93 114.271 142.009C114.957 142.668 115.239 143.148 115.464 143.812C115.75 144.594 115.921 145.432 117.004 145.432H122.59C123.901 145.432 124.244 145.192 124.244 143.751C124.244 137.567 119.398 134.083 113.87 132.882V128.078C113.87 126.999 113.527 126.335 112.216 126.335H107.767C106.455 126.335 106.112 126.995 106.112 128.078V132.699C100.184 133.838 95.2273 137.563 95.2273 144.289C95.2273 151.914 100.531 154.315 106.284 156.233C111.129 157.858 116.204 157.915 116.204 161.278C116.204 164.64 113.699 165.361 110.618 165.361C108.506 165.361 106.173 164.816 105.029 163.378C104.29 162.478 104.004 161.697 103.951 160.915C103.836 159.413 103.211 159.234 101.896 159.234H96.3676C95.0563 159.234 94.713 159.539 94.713 160.915C94.713 167.759 100.188 171.907 106.112 173.226V177.912C106.112 178.991 106.456 179.654 107.767 179.654H112.216C113.527 179.654 113.871 178.991 113.871 177.912V173.352C120.596 172.326 125.213 168.247 125.213 161.041C125.22 152.878 119.177 151.136 115.071 149.817Z" fill="url(#paint2_linear_476_439)"/>
</g>
<defs>
<filter id="filter0_d_476_439" x="46" y="92" width="130" height="130" filterUnits="userSpaceOnUse" color-interpolation-filters="sRGB">
<feFlood flood-opacity="0" result="BackgroundImageFix"/>
<feColorMatrix in="SourceAlpha" type="matrix" values="0 0 0 0 0 0 0 0 0 0 0 0 0 0 0 0 0 0 127 0" result="hardAlpha"/>
<feOffset dx="1" dy="4"/>
<feGaussianBlur stdDeviation="2"/>
<feComposite in2="hardAlpha" operator="out"/>
<feColorMatrix type="matrix" values="0 0 0 0 0 0 0 0 0 0 0 0 0 0 0 0 0 0 0.25 0"/>
<feBlend mode="normal" in2="BackgroundImageFix" result="effect1_dropShadow_476_439"/>
<feBlend mode="normal" in="SourceGraphic" in2="effect1_dropShadow_476_439" result="shape"/>
</filter>
<filter id="filter1_d_476_439" x="45" y="92" width="130" height="130" filterUnits="userSpaceOnUse" color-interpolation-filters="sRGB">
<feFlood flood-opacity="0" result="BackgroundImageFix"/>
<feColorMatrix in="SourceAlpha" type="matrix" values="0 0 0 0 0 0 0 0 0 0 0 0 0 0 0 0 0 0 127 0" result="hardAlpha"/>
<feOffset dy="4"/>
<feGaussianBlur stdDeviation="2"/>
<feComposite in2="hardAlpha" operator="out"/>
<feColorMatrix type="matrix" values="0 0 0 0 0 0 0 0 0 0 0 0 0 0 0 0 0 0 0.25 0"/>
<feBlend mode="normal" in2="BackgroundImageFix" result="effect1_dropShadow_476_439"/>
<feBlend mode="normal" in="SourceGraphic" in2="effect1_dropShadow_476_439" result="shape"/>
</filter>
<linearGradient id="paint0_linear_476_439" x1="-33" y1="33.5" x2="-28.6898" y2="305.019" gradientUnits="userSpaceOnUse">
<stop stop-color="#5315D6"/>
<stop offset="1" stop-color="#00FFD1"/>
</linearGradient>
<linearGradient id="paint1_linear_476_439" x1="49" y1="101" x2="182.5" y2="204" gradientUnits="userSpaceOnUse">
<stop stop-color="#EFAC5E"/>
<stop offset="1" stop-color="#EF815E"/>
</linearGradient>
<linearGradient id="paint2_linear_476_439" x1="110" y1="103.438" x2="110" y2="202.562" gradientUnits="userSpaceOnUse">
<stop stop-color="#CC8633"/>
<stop offset="1" stop-color="#CC4F33"/>
</linearGradient>
</defs>
</svg>
