<svg width="193" height="238" viewBox="0 0 193 238" fill="none" xmlns="http://www.w3.org/2000/svg">
<path d="M113.5 162.094H100.094V189H73.1875V162.094H5.96875L20.9688 54.5625H47.875L36.1562 135.281H73.1875V68.0625H100.094V135.281H113.5V162.094Z" fill="url(#paint0_linear_476_438)"/>
<g clip-path="url(#clip0_476_438)">
<path d="M175.678 102.772C162.18 95.6961 147.167 92 131.926 92H131.926C116.779 92 101.855 95.6512 88.4188 102.644L79.1845 107.45C76.126 109.042 74.3559 112.346 74.7257 115.774L81.6995 180.444C82.1291 184.429 84.416 187.976 87.8681 190.012L125.554 212.241C129.531 214.587 134.469 214.587 138.446 212.241L176.132 190.011C179.584 187.976 181.87 184.429 182.301 180.446L189.274 115.886C189.644 112.467 187.884 109.169 184.837 107.572L175.678 102.772Z" fill="#00FFD0"/>
<path d="M184.837 107.572L175.678 102.771C162.569 95.8998 148.031 92.2167 133.243 92.0098V213.928C135.05 213.75 136.827 213.191 138.445 212.237L176.132 190.008C179.583 187.973 181.87 184.426 182.301 180.443L189.274 115.886C189.644 112.466 187.884 109.168 184.837 107.572Z" fill="#00D1AB"/>
<path d="M163.078 117.262C153.473 112.227 142.791 109.597 131.947 109.597C121.17 109.597 110.552 112.195 100.991 117.171L94.4211 120.59C92.245 121.723 90.9856 124.074 91.2486 126.513L96.2104 172.528C96.5161 175.364 98.1433 177.888 100.599 179.336L127.413 195.153C130.243 196.822 133.756 196.822 136.586 195.153L163.401 179.336C165.856 177.887 167.483 175.364 167.79 172.529L172.751 126.593C173.014 124.16 171.762 121.814 169.594 120.678L163.078 117.262Z" fill="#00D1AB"/>
<path d="M169.594 120.678L163.078 117.262C153.815 112.406 143.549 109.788 133.103 109.608V196.337C134.313 196.188 135.5 195.796 136.586 195.155L163.401 179.338C165.857 177.889 167.484 175.366 167.79 172.531L172.752 126.594C173.014 124.161 171.762 121.814 169.594 120.678Z" fill="#00FFD0"/>
</g>
<defs>
<linearGradient id="paint0_linear_476_438" x1="-64.9355" y1="29.5" x2="-73.336" y2="313.905" gradientUnits="userSpaceOnUse">
<stop stop-color="#F700FF"/>
<stop offset="1" stop-color="#00ABFF"/>
</linearGradient>
<clipPath id="clip0_476_438">
<rect width="122" height="122" fill="white" transform="translate(71 92)"/>
</clipPath>
</defs>
</svg>
