<svg width="27" height="31" viewBox="0 0 27 31" fill="none" xmlns="http://www.w3.org/2000/svg">
<path d="M18.0787 13.8009L18.079 13.8005C18.3002 13.5434 18.2854 13.1501 18.0423 12.907C18.0423 12.907 18.0423 12.907 18.0423 12.907M18.0787 13.8009L18.0423 12.907M18.0787 13.8009L14.7801 17.664L14.7365 17.7151L14.7456 17.7817C14.8221 18.3408 14.6515 18.9211 14.2236 19.349C13.5022 20.0704 12.3283 20.0711 11.5999 19.3487C10.8789 18.6274 10.8783 17.4538 11.6003 16.7256C12.0282 16.2977 12.6085 16.1272 13.1675 16.2037L13.2341 16.2128L13.2852 16.1691L17.1476 12.8712M18.0787 13.8009L17.1476 12.8712M18.0423 12.907C17.7997 12.6644 17.4123 12.6483 17.148 12.8708M18.0423 12.907L17.148 12.8708M17.148 12.8708C17.1479 12.871 17.1478 12.8711 17.1476 12.8712M17.148 12.8708L17.1476 12.8712M7.85759 22.1936L7.85864 22.1926C8.1109 21.9352 8.52885 21.9352 8.78091 22.1873L8.78199 22.1884C9.0401 22.4413 9.0449 22.8593 8.78725 23.117L8.78619 23.118C8.53494 23.3744 8.11696 23.3763 7.85761 23.1233C7.60363 22.8631 7.60069 22.4505 7.85759 22.1936ZM8.75554 13.9191L8.75553 13.9191L8.75447 13.9202C8.50305 14.1767 8.08467 14.1785 7.82536 13.9249C7.56651 13.6655 7.56821 13.2471 7.81952 12.9958L7.82064 12.9947L7.82115 12.9941L7.82139 12.9939L7.82163 12.9937L7.82208 12.9932L7.82211 12.9932L7.82213 12.9932L7.82219 12.9931L7.82222 12.9931L7.82224 12.9931L7.8223 12.993L7.82251 12.9928L7.82261 12.9927L7.82266 12.9926L7.82268 12.9926L7.82271 12.9926L7.82291 12.9924L7.82296 12.9923L7.82301 12.9923L7.8231 12.9922L7.82312 12.9922L7.82315 12.9921L7.82317 12.9921L7.8232 12.9921L7.82329 12.992L7.82465 12.9906L7.82587 12.9894L7.82646 12.9888L7.82648 12.9888L7.8265 12.9888L7.82654 12.9888L7.82658 12.9887L7.82662 12.9887L7.82677 12.9885L7.82708 12.9882L7.82773 12.9876L7.82808 12.9872L7.82817 12.9871L7.82821 12.9871L7.82824 12.9871L7.82826 12.987L7.82844 12.9869L7.82863 12.9867L7.82866 12.9866L7.82868 12.9866L7.82873 12.9866L7.82882 12.9865L7.82892 12.9864L7.82902 12.9863L7.82923 12.9861L7.8301 12.9852L7.83058 12.9847L7.83109 12.9842L7.83122 12.9841L7.83136 12.9839L7.83139 12.9839L7.83143 12.9839L7.83149 12.9838L7.83156 12.9837L7.83163 12.9837L7.83221 12.9831L7.83432 12.981L7.83598 12.9793L7.83855 12.9767L7.8449 12.9704L7.8449 12.9704L7.84596 12.9693C8.09739 12.7128 8.51538 12.7112 8.77457 12.9704C9.03316 13.229 9.03316 13.6415 8.77457 13.9001L8.77449 13.9001L8.77442 13.9002L8.77435 13.9003L8.77431 13.9003L8.77428 13.9004L8.77424 13.9004L8.7742 13.9004L8.77417 13.9005L8.77413 13.9005L8.7741 13.9005L8.77406 13.9006L8.77399 13.9006L8.77372 13.9009L8.77368 13.901L8.77365 13.901L8.77362 13.901L8.77358 13.9011L8.77352 13.9011L8.77348 13.9012L8.77345 13.9012C8.7732 13.9014 8.77364 13.901 8.77339 13.9013L8.77332 13.9013L8.77326 13.9014L8.77322 13.9014L8.77319 13.9014L8.77294 13.9017L8.77246 13.9022L8.77201 13.9026L8.77159 13.9031L8.7708 13.9038L8.77062 13.904L8.77053 13.9041L8.77048 13.9042L8.77046 13.9042L8.77044 13.9042L8.77009 13.9045L8.76993 13.9047L8.7699 13.9047L8.76988 13.9048L8.76984 13.9048L8.76982 13.9048L8.7698 13.9048L8.76976 13.9049L8.76944 13.9052L8.76913 13.9055L8.76911 13.9055L8.76909 13.9056L8.76905 13.9056L8.76901 13.9056L8.76897 13.9057L8.76896 13.9057L8.76894 13.9057L8.76892 13.9057L8.7689 13.9057L8.76888 13.9058L8.76886 13.9058L8.76884 13.9058L8.76882 13.9058L8.76822 13.9064L8.76763 13.907L8.76732 13.9073L8.76725 13.9074L8.76723 13.9074L8.76721 13.9074L8.76719 13.9075L8.76717 13.9075L8.76701 13.9076L8.76636 13.9083L8.76601 13.9086L8.76597 13.9087L8.76592 13.9087L8.76583 13.9088L8.76565 13.909L8.76486 13.9098L8.76399 13.9107L8.76351 13.9111L8.763 13.9116L8.76293 13.9117L8.76287 13.9118L8.7628 13.9118L8.76277 13.9119L8.76273 13.9119L8.76246 13.9122L8.76239 13.9123L8.76232 13.9123L8.76225 13.9124L8.76217 13.9125L8.7621 13.9125L8.76203 13.9126L8.76199 13.9126L8.76196 13.9127L8.76192 13.9127L8.76188 13.9128L8.75554 13.9191ZM17.0618 22.1683L17.0628 22.1672C17.3142 21.9108 17.7321 21.9089 17.9915 22.1619C18.2454 22.4222 18.2484 22.841 17.9915 23.0979L17.9904 23.099C17.739 23.3556 17.321 23.3571 17.0618 23.0979L17.0607 23.0969C16.8042 22.8455 16.8026 22.4275 17.0618 22.1683ZM19.417 18.6898V18.6897L19.4127 18.6898C19.2371 18.6949 19.0728 18.6196 18.9522 18.499C18.8339 18.3807 18.7614 18.2157 18.7614 18.0342C18.7614 17.6666 19.0558 17.3722 19.4234 17.3722C19.792 17.3722 20.0841 17.6674 20.079 18.0257V18.0257C20.0738 18.3968 19.7826 18.6898 19.417 18.6898ZM11.4482 5.35053L11.5807 5.33497V5.20155V3.24146V3.09146H11.4307H10.6251C10.3028 3.09146 10.0456 2.82961 10.0456 2.51197V0.729486C10.0456 0.407202 10.3075 0.15 10.6251 0.15H15.2685C15.5907 0.15 15.8479 0.411847 15.8479 0.729486V2.51197C15.8479 2.83425 15.5861 3.09146 15.2685 3.09146H14.4629H14.3128V3.24146V5.19521V5.3287L14.4454 5.3442C16.8589 5.62629 19.0657 6.58539 20.878 8.02139L20.9827 8.10438L21.0772 8.00989L22.1302 6.95689L22.2363 6.85083L22.1302 6.74476L22.035 6.64961C21.8082 6.42274 21.8082 6.05465 22.035 5.82778L23.4813 4.38149C23.7082 4.15462 24.0763 4.15462 24.3032 4.38149L26.6439 6.72219C26.8707 6.94906 26.8707 7.31715 26.6439 7.54403L25.1976 8.99031C24.9707 9.21718 24.6026 9.21718 24.3757 8.99031L24.2806 8.89516L24.1745 8.78909L24.0685 8.89516L23.0155 9.94816L22.9211 10.0425L23.0038 10.1472C24.7217 12.3228 25.7436 15.0686 25.7436 18.0469C25.7436 25.1067 20.0002 30.85 12.9468 30.85C5.89336 30.85 0.15 25.1066 0.15 18.0532C0.15 11.5079 5.09686 6.09664 11.4482 5.35053ZM7.06233 18.0595C7.06233 18.423 6.77197 18.7215 6.40673 18.7215C6.22519 18.7215 6.06016 18.649 5.94189 18.5307C5.82362 18.4125 5.75112 18.2474 5.75112 18.0659C5.75112 17.7024 6.04148 17.4039 6.40673 17.4039C6.76234 17.4039 7.06233 17.6991 7.06233 18.0595ZM13.5707 11.5259C13.5707 11.8927 13.2707 12.1878 12.9087 12.1878C12.7281 12.1878 12.5628 12.116 12.4375 11.9907C12.3193 11.8725 12.2468 11.7074 12.2468 11.5259C12.2468 11.1583 12.5412 10.8639 12.9087 10.8639C13.2763 10.8639 13.5707 11.1583 13.5707 11.5259ZM12.2722 24.5551C12.2722 24.1861 12.5618 23.8932 12.9278 23.8932C13.296 23.8932 13.5897 24.1884 13.5897 24.5488C13.5897 24.9171 13.2945 25.2108 12.9341 25.2108C12.7456 25.2108 12.5807 25.1378 12.4629 25.02C12.3447 24.9017 12.2722 24.7367 12.2722 24.5551ZM23.0368 18.0532C23.0368 12.4897 18.5102 7.96316 12.9467 7.96316C7.38322 7.96316 2.85669 12.4897 2.85669 18.0532C2.85669 23.6166 7.37682 28.1432 12.9467 28.1432C18.5103 28.1432 23.0368 23.6167 23.0368 18.0532ZM13.592 17.3635C13.217 16.9886 12.6078 16.9868 12.2375 17.3642C11.8631 17.7392 11.8616 18.348 12.2387 18.718C12.6137 19.0925 13.2225 19.094 13.5926 18.7169C13.9678 18.3411 13.9676 17.7391 13.592 17.3635Z" fill="url(#paint0_linear_474_420)" stroke="white" stroke-width="0.3"/>
<defs>
<linearGradient id="paint0_linear_474_420" x1="1.5" y1="8.5" x2="14.5" y2="25.5" gradientUnits="userSpaceOnUse">
<stop stop-color="#042944"/>
<stop offset="1" stop-color="#005E9D"/>
</linearGradient>
</defs>
</svg>
