<svg width="37" height="36" viewBox="0 0 37 36" fill="none" xmlns="http://www.w3.org/2000/svg">
<path d="M23.3607 23.142C23.8529 23.142 24.2802 22.8428 24.5775 22.3968C24.8755 21.9497 25.055 21.3407 25.055 20.6756C25.055 20.0104 24.8755 19.4015 24.5775 18.9544C24.2802 18.5084 23.8529 18.2091 23.3607 18.2091C22.8685 18.2091 22.4413 18.5084 22.1439 18.9544C21.8459 19.4015 21.6664 20.0104 21.6664 20.6756C21.6664 21.3407 21.8459 21.9497 22.1439 22.3968C22.4413 22.8428 22.8685 23.142 23.3607 23.142Z" fill="url(#paint0_linear_474_365)" stroke="white" stroke-width="0.3"/>
<path d="M26.4242 15.4838C26.8695 15.4838 27.2541 15.2118 27.5203 14.8106C27.7873 14.4082 27.9476 13.8611 27.9476 13.2642C27.9476 12.6673 27.7873 12.1202 27.5203 11.7178C27.2541 11.3166 26.8695 11.0446 26.4242 11.0446C25.9789 11.0446 25.5943 11.3166 25.3281 11.7178C25.061 12.1202 24.9008 12.6673 24.9008 13.2642C24.9008 13.8611 25.061 14.4082 25.3281 14.8106C25.5943 15.2118 25.9789 15.4838 26.4242 15.4838Z" fill="url(#paint1_linear_474_365)" stroke="white" stroke-width="0.3"/>
<g filter="url(#filter0_d_474_365)">
<path d="M31.9114 5.26424L17.9367 1.06171C17.9114 1.05538 17.8797 1.04905 17.8544 1.04272C17.8291 1.03639 17.7975 1.03006 17.7722 1.02373C17.5886 0.992089 17.4051 0.992089 17.2215 1.02373C17.1962 1.03006 17.1646 1.03639 17.1392 1.04272C17.1139 1.04905 17.0823 1.05538 17.057 1.06171L13.9367 1.99842L11.4177 2.75791L4.36076 4.87817L3.08861 5.25791C2.44304 5.45412 2 6.04905 2 6.71994V25.182C2 25.8592 2.44304 26.4478 3.08861 26.644L17.057 30.8592C17.2025 30.9035 17.3481 30.9225 17.5 30.9225C17.6456 30.9225 17.7975 30.9035 17.943 30.8592L31.9114 26.6567C32.557 26.4604 33 25.8655 33 25.1946V6.72627C33 6.05538 32.557 5.46044 31.9114 5.26424ZM6.44304 23.5364C5.70253 23.5364 5.09494 22.6313 5.09494 21.5174C5.09494 20.4035 5.6962 19.4984 6.44304 19.4984C7.18354 19.4984 7.79114 20.4035 7.79114 21.5174C7.79114 22.6313 7.18354 23.5364 6.44304 23.5364ZM9.62658 17.7832C8.81013 17.7832 8.14557 16.7832 8.14557 15.5554C8.14557 14.3275 8.81013 13.3275 9.62658 13.3275C10.443 13.3275 11.1076 14.3275 11.1076 15.5554C11.1076 16.7832 10.4494 17.7832 9.62658 17.7832ZM13.2595 12.0744C12.4051 12.0744 11.7152 11.0364 11.7152 9.75791C11.7152 8.47943 12.4051 7.44146 13.2595 7.44146C14.1139 7.44146 14.8038 8.47943 14.8038 9.75791C14.8038 11.0364 14.1139 12.0744 13.2595 12.0744ZM29.943 24.0554L19.0253 27.3402V4.5807L29.943 7.86551V24.0554Z" fill="url(#paint2_linear_474_365)"/>
<path d="M31.9546 5.1206L31.955 5.12072C32.6632 5.33597 33.15 5.9888 33.15 6.72627V25.1946C33.15 25.9321 32.6632 26.5849 31.955 26.8002L31.9546 26.8003L17.9867 31.0027C17.9866 31.0027 17.9865 31.0028 17.9863 31.0028L17.9863 31.0028L17.943 30.8592C17.7975 30.9035 17.6456 30.9225 17.5 30.9225C17.3481 30.9225 17.2025 30.9035 17.057 30.8592L31.9546 5.1206ZM31.9546 5.1206L17.9799 0.918064L17.98 0.917904L17.9731 0.916188C17.9585 0.91254 17.9426 0.909015 17.9291 0.906003L17.9281 0.905787C17.9134 0.902516 17.9012 0.899794 17.8908 0.8972C17.8762 0.893553 17.8604 0.890027 17.8468 0.887016L17.8458 0.8868C17.8311 0.883529 17.8189 0.880807 17.8085 0.878213L17.8086 0.877811L17.7976 0.875915C17.5972 0.841362 17.3964 0.841362 17.196 0.875915L17.196 0.875507L17.1851 0.878213C17.1748 0.880807 17.1626 0.883529 17.1478 0.8868L17.1469 0.887016C17.1333 0.890027 17.1175 0.893553 17.1029 0.8972C17.0925 0.899794 17.0803 0.902516 17.0656 0.905787L17.0646 0.905999C17.0511 0.909011 17.0352 0.912538 17.0206 0.916188L17.0205 0.916029L17.0138 0.918043L13.8936 1.85475L13.8934 1.8548L11.3746 2.61426L11.3744 2.6143L4.31785 4.73443L4.3176 4.73451L3.0457 5.11418L3.04499 5.11439C2.33675 5.32964 1.85 5.98247 1.85 6.71994V25.182C1.85 25.9261 2.3371 26.5724 3.04499 26.7875L3.04527 26.7876L17.0133 31.0027C17.0134 31.0027 17.0134 31.0027 17.0135 31.0028L31.9546 5.1206ZM6.44304 23.3864C6.13864 23.3864 5.8427 23.2002 5.61598 22.8612C5.39008 22.5235 5.24494 22.0486 5.24494 21.5174C5.24494 20.9859 5.38866 20.511 5.61373 20.1734C5.83944 19.8348 6.13526 19.6484 6.44304 19.6484C6.74743 19.6484 7.04337 19.8346 7.2701 20.1736C7.496 20.5113 7.64114 20.9862 7.64114 21.5174C7.64114 22.0486 7.496 22.5235 7.2701 22.8612C7.04337 23.2002 6.74743 23.3864 6.44304 23.3864ZM9.62658 17.6332C9.2845 17.6332 8.95537 17.4236 8.70483 17.0467C8.45508 16.671 8.29557 16.1438 8.29557 15.5554C8.29557 14.967 8.45508 14.4398 8.70483 14.0641C8.95537 13.6871 9.2845 13.4775 9.62658 13.4775C9.96866 13.4775 10.2978 13.6871 10.5483 14.0641C10.7981 14.4398 10.9576 14.967 10.9576 15.5554C10.9576 16.1441 10.7995 16.6713 10.5506 17.0469C10.3011 17.4234 9.97203 17.6332 9.62658 17.6332ZM13.2595 11.9244C12.898 11.9244 12.5531 11.7049 12.2918 11.3124C12.0311 10.921 11.8652 10.3717 11.8652 9.75791C11.8652 9.1441 12.0311 8.59483 12.2918 8.20341C12.5531 7.81097 12.898 7.59146 13.2595 7.59146C13.621 7.59146 13.9658 7.81097 14.2272 8.20341C14.4879 8.59483 14.6538 9.1441 14.6538 9.75791C14.6538 10.3717 14.4879 10.921 14.2272 11.3124C13.9658 11.7049 13.621 11.9244 13.2595 11.9244ZM29.793 7.97702V23.9439L19.1753 27.1384V4.78247L29.793 7.97702Z" stroke="white" stroke-width="0.3"/>
</g>
<defs>
<filter id="filter0_d_474_365" x="0.699951" y="0.699951" width="35.6001" height="34.5225" filterUnits="userSpaceOnUse" color-interpolation-filters="sRGB">
<feFlood flood-opacity="0" result="BackgroundImageFix"/>
<feColorMatrix in="SourceAlpha" type="matrix" values="0 0 0 0 0 0 0 0 0 0 0 0 0 0 0 0 0 0 127 0" result="hardAlpha"/>
<feOffset dx="1" dy="2"/>
<feGaussianBlur stdDeviation="1"/>
<feComposite in2="hardAlpha" operator="out"/>
<feColorMatrix type="matrix" values="0 0 0 0 0 0 0 0 0 0 0 0 0 0 0 0 0 0 0.25 0"/>
<feBlend mode="normal" in2="BackgroundImageFix" result="effect1_dropShadow_474_365"/>
<feBlend mode="normal" in="SourceGraphic" in2="effect1_dropShadow_474_365" result="shape"/>
</filter>
<linearGradient id="paint0_linear_474_365" x1="21.3681" y1="18.4305" x2="24.8238" y2="20.8909" gradientUnits="userSpaceOnUse">
<stop stop-color="#04293F"/>
<stop offset="1" stop-color="#006A9F"/>
</linearGradient>
<linearGradient id="paint1_linear_474_365" x1="24.652" y1="11.2584" x2="27.7349" y2="13.4431" gradientUnits="userSpaceOnUse">
<stop stop-color="#04293F"/>
<stop offset="1" stop-color="#006A9F"/>
</linearGradient>
<linearGradient id="paint2_linear_474_365" x1="-2.5" y1="1.46118" x2="21" y2="27.4612" gradientUnits="userSpaceOnUse">
<stop stop-color="#04293F"/>
<stop offset="1" stop-color="#006A9F"/>
</linearGradient>
</defs>
</svg>
