<svg width="60" height="50" viewBox="0 0 60 50" fill="none" xmlns="http://www.w3.org/2000/svg">
<g clip-path="url(#clip0_42_45)">
<path d="M29.238 19.684C29.238 18.622 28.402 17.767 27.371 17.767C26.34 17.767 25.506 18.622 25.506 19.684C25.506 20.136 25.665 20.548 25.922 20.877C26.897 20.538 28.318 20.102 29.197 20.081C29.224 19.953 29.238 19.82 29.238 19.684Z" fill="white"/>
<path d="M57.639 0C56.692 0 56.017 0.537 55.235 1.159C54.158 2.015 52.682 3.188 50.585 3.188C49.421 3.188 48.146 2.354 47.12 1.684C46.142 1.044 45.298 0.493 44.306 0.493C43.382 0.493 42.183 1.046 41.845 2.605C41.386 4.72 42.822 6.9 43.717 8.011C44.064 8.442 44.467 8.879 44.91 9.292C39.953 10.934 28.67 13.426 5.85402 13.426C1.84902 13.426 0.401015 17.308 0.190015 19.385C0.147015 19.744 -0.220985 22.958 0.202015 25.651C1.66401 35.004 9.05102 45 25.398 45C26.021 45 26.611 44.994 27.179 44.983C28.131 46.86 29.406 48.197 30.589 47.93C31.599 47.701 32.339 46.346 32.759 44.604C33.2741 44.5334 33.7867 44.446 34.296 44.342C35.664 47.383 37.783 50 40.41 50C40.691 50 40.971 49.969 41.243 49.907C45.131 49.029 46.441 42.481 46.013 37.502C52.6 31.005 54.34 16.219 54.72 11.742C59.369 9.563 60 5.995 60 3.058C60 0.221 58.193 0 57.639 0ZM25.398 43C9.16602 43 3.35702 32.887 2.17702 25.341C1.77702 22.793 2.17702 19.607 2.17702 19.607V19.605C2.62002 19.595 3.06302 19.584 3.50502 19.576C3.53102 22.615 4.05001 25.728 5.17402 28.578C6.30001 31.482 8.07101 34.127 10.327 36.217C12.573 38.322 15.257 39.874 18.076 40.942C20.9 42.018 23.859 42.646 26.829 42.989C26.366 42.994 25.9 43 25.398 43ZM26.83 42.987C23.879 42.498 20.969 41.727 18.242 40.531C15.517 39.343 12.986 37.7 10.936 35.581C8.88205 33.467 7.33305 30.9156 6.40501 28.118C5.47602 25.366 5.13202 22.473 5.24902 19.549C6.25377 19.5388 7.25862 19.5482 8.26301 19.577C8.14602 23.029 8.95201 26.46 10.485 29.483C12.0561 32.5698 14.3571 35.2264 17.188 37.222C19.977 39.202 23.184 40.494 26.477 41.165C28.741 41.635 31.043 41.798 33.339 41.767C33.406 41.992 33.48 42.217 33.556 42.443C31.813 42.766 29.677 42.944 26.83 42.987ZM15.884 29.615C17.62 32.587 20.117 35.045 23.002 36.788C25.887 38.536 29.172 39.574 32.498 39.771C32.615 39.778 32.732 39.774 32.851 39.779C32.965 40.375 33.114 40.996 33.298 41.629C31.026 41.557 28.766 41.292 26.572 40.735C23.361 39.931 20.299 38.528 17.706 36.509C15.109 34.5 13.009 31.871 11.665 28.903C10.351 26.005 9.75502 22.79 10 19.659C11.116 19.728 12.227 19.831 13.33 19.981C13.2869 23.3651 14.1701 26.6966 15.884 29.615ZM15.057 20.266C15.237 20.299 15.418 20.326 15.597 20.364C16.497 20.542 17.377 20.787 18.246 21.067C18.26 25.685 21.029 30.662 25.484 34.061C27.5962 35.6787 30.0095 36.8593 32.583 37.534C32.605 38.013 32.646 38.513 32.725 39.052C32.739 39.149 32.76 39.251 32.776 39.35C32.696 39.342 32.614 39.341 32.533 39.332C29.2896 38.9843 26.179 37.855 23.468 36.041C20.779 34.246 18.523 31.803 17.029 28.966C15.6086 26.2934 14.9278 23.2899 15.057 20.266ZM52.814 10.368C52.728 12.833 51.354 27.878 45.601 34.967V34.966C45.097 35.5972 44.5305 36.1758 43.91 36.693C44.578 41.275 43.346 47.382 40.804 47.957C40.674 47.985 40.543 48 40.41 48C37.971 48 35.338 43.108 34.703 38.761C34.603 38.082 34.564 37.46 34.568 36.882C34.146 36.841 33.769 36.782 33.436 36.718C30.7679 36.108 28.2625 34.9306 26.09 33.266C21.989 30.136 19.405 25.627 19.259 21.411C20.167 21.743 21.067 22.112 21.955 22.525C22.991 22.969 24.036 23.548 25.253 23.658C26.489 23.734 27.584 23.112 28.441 22.381C27.468 22.957 26.373 23.44 25.3 23.227C24.235 23.054 23.259 22.442 22.251 21.914C20.2254 20.7875 18.041 19.974 15.772 19.501C13.5118 19.0494 11.208 18.8541 8.90402 18.919C6.64302 18.967 4.39301 19.189 2.17702 19.594C2.19402 19.436 2.64502 15.429 5.85102 15.429C41.396 15.429 49.437 9.497 49.437 9.497C47.08 9.497 43.316 5.243 43.795 3.032C43.878 2.649 44.052 2.495 44.302 2.495C45.351 2.495 47.751 5.19 50.581 5.19C54.626 5.19 56.829 2.002 57.636 2.002C57.885 2 58 2.294 58 3.059C58 6.296 57.137 8.795 52.814 10.368Z" fill="white"/>
</g>
<defs>
<clipPath id="clip0_42_45">
<rect width="60" height="50" fill="white"/>
</clipPath>
</defs>
</svg>
