<svg width="39" height="40" viewBox="0 0 39 40" fill="none" xmlns="http://www.w3.org/2000/svg">
<path d="M34.2177 11.9679C34.2327 12.3199 34.2327 12.6559 34.2327 13.0079C34.2478 23.68 26.603 36 12.6227 36C8.49938 36 4.45127 34.736 0.975006 32.368C1.57696 32.448 2.17891 32.48 2.78086 32.48C6.19692 32.48 9.52269 31.264 12.2164 29.008C8.96589 28.944 6.10663 26.688 5.11341 23.392C6.25711 23.632 7.43092 23.584 8.54452 23.248C5.00807 22.512 2.46483 19.1999 2.44978 15.3439C2.44978 15.3119 2.44978 15.2799 2.44978 15.2479C3.50319 15.8719 4.69205 16.2239 5.89595 16.2559C2.57017 13.8879 1.53181 9.16791 3.54834 5.4719C7.41587 10.5279 13.1043 13.5839 19.2141 13.9199C18.5971 11.1199 19.4398 8.17591 21.4112 6.1919C24.4661 3.13589 29.2817 3.2959 32.171 6.54391C33.8716 6.1919 35.5119 5.5199 37.0017 4.5759C36.4298 6.44791 35.241 8.03191 33.6609 9.03991C35.1657 8.84791 36.6405 8.41591 38.025 7.77591C37.0017 9.40792 35.7075 10.8159 34.2177 11.9679Z" fill="url(#paint0_linear_52_185)"/>
<defs>
<linearGradient id="paint0_linear_52_185" x1="19.5" y1="4" x2="19.5" y2="36" gradientUnits="userSpaceOnUse">
<stop stop-color="#00ACF9"/>
<stop offset="0.935417" stop-color="#00BF9C"/>
</linearGradient>
</defs>
</svg>
